<svg xmlns="http://www.w3.org/2000/svg" fill="none" viewBox="0 0 140 24" height="24" width="140">
<g clip-path="url(#clip0_4270_2602)">
<path fill="#7CB7F6" d="M28.697 0H0V11.1996H28.697V0Z"></path>
<path fill="white" d="M14.3485 11.1997L0 24.0001H28.697L14.3485 11.1997Z"></path>
<path fill="white" d="M45.4369 0C43.072 0 40.7602 0.703764 38.7939 2.0223C36.8276 3.34083 35.295 5.21491 34.39 7.40755C33.485 9.60019 33.2482 12.0129 33.7096 14.3406C34.1709 16.6683 35.3097 18.8064 36.9819 20.4846C38.6542 22.1628 40.7847 23.3056 43.1042 23.7686C45.4236 24.2316 47.8278 23.994 50.0127 23.0858C52.1975 22.1776 54.065 20.6395 55.3788 18.6662C56.6927 16.6929 57.3939 14.3729 57.3939 11.9996C57.3939 10.4238 57.0847 8.86341 56.4838 7.40755C55.8829 5.95169 55.0021 4.62887 53.8918 3.5146C52.7815 2.40034 51.4634 1.51645 50.0127 0.913415C48.562 0.310379 47.0071 0 45.4369 0ZM49.8012 19.5857C47.1834 21.1057 43.1052 18.9362 40.6963 14.7459C38.2873 10.5556 38.4547 5.9302 41.0725 4.41345C43.6903 2.8967 47.7685 5.06303 50.1775 9.25329C52.5864 13.4436 52.419 18.069 49.8012 19.5857Z"></path>
<path fill="white" d="M139.738 19.1995H134.955V23.9993H139.738V19.1995Z"></path>
<path fill="white" d="M69.9887 9.27979H69.4307C68.5236 9.27979 65.0329 9.42458 63.4522 13.0597V9.27979H58.6694V23.9993H63.4522V20.9594C63.4522 16.4795 65.5248 12.4797 70.0685 12.4797H70.7062V9.27979H69.9887Z"></path>
<path fill="white" d="M85.5329 12.4796V9.27968H80.4312V1.91992H75.6484V9.27968H71.9816V12.4796H75.6484V19.1993C75.6484 20.4723 76.1523 21.6932 77.0493 22.5933C77.9462 23.4935 79.1628 23.9992 80.4312 23.9992H85.5329V19.1993H81.7067C81.3684 19.1993 81.044 19.0645 80.8048 18.8245C80.5656 18.5844 80.4312 18.2589 80.4312 17.9194V12.4796H85.5329Z"></path>
<path fill="white" d="M98.9248 9.27968H92.8666V1.91992H88.0838V9.27968H86.8083V12.4796H88.0838V23.9992H92.8666V12.4796H97.6494C97.9877 12.4796 98.3121 12.6144 98.5513 12.8545C98.7905 13.0945 98.9248 13.4201 98.9248 13.7595V23.9992H103.708V14.0795C103.708 12.8065 103.204 11.5857 102.307 10.6855C101.41 9.78537 100.193 9.27968 98.9248 9.27968Z"></path>
<path fill="white" d="M125.653 12.9077C127.167 12.1989 128.762 13.6228 128.895 15.5196H133.678C133.678 15.5196 133.757 9.27979 126.822 9.27979C119.887 9.27979 119.967 14.2396 122.518 15.9196C124.043 16.9243 125.701 16.9867 127.051 17.3163C129.766 18.0235 130.08 19.845 128.956 20.3714C127.442 21.0802 125.847 19.6562 125.714 17.7595H120.931C120.931 17.7595 120.852 23.9993 127.787 23.9993C134.722 23.9993 134.642 19.0395 132.091 17.3595C130.565 16.3548 128.908 16.2924 127.558 15.9628C124.843 15.2556 124.529 13.434 125.653 12.9077Z"></path>
<path fill="white" d="M112.297 9.27979C110.846 9.27979 109.428 9.71143 108.222 10.5201C107.016 11.3288 106.076 12.4783 105.521 13.8231C104.966 15.1679 104.821 16.6477 105.104 18.0754C105.387 19.503 106.086 20.8144 107.111 21.8437C108.137 22.873 109.444 23.5739 110.866 23.8579C112.289 24.1419 113.763 23.9961 115.103 23.4391C116.443 22.882 117.589 21.9387 118.395 20.7284C119.2 19.5181 119.631 18.0952 119.631 16.6395C119.631 14.6876 118.858 12.8156 117.483 11.4354C116.107 10.0552 114.242 9.27979 112.297 9.27979ZM114.758 20.9082C113.523 21.6234 111.414 20.2786 110.047 17.9035C108.679 15.5284 108.574 13.0237 109.807 12.3037C111.041 11.5837 113.155 12.9325 114.518 15.3076C115.882 17.6827 115.993 20.1922 114.758 20.9082Z"></path>
</g>
<defs>
<clipPath id="clip0_4270_2602">
<rect fill="white" height="24" width="139.738"></rect>
</clipPath>
</defs>
</svg>